/* XPM */
static char *_4e75842ca6f4a9ee62e4c0b650fbf8bZOvcGs4NF7fGPFQm[] = {
/* columns rows colors chars-per-pixel */
"64 64 10 1 ",
"  c None",
". c #9622D4",
"X c #A100F7",
"o c #E88291",
"O c #D296F2",
"+ c #E8B1E1",
"@ c #ABD4F5",
"# c #F2EBC9",
"$ c #EDC1E7",
"% c white",
/* pixels */
"OOOOOOOXX$$$$$$$$$$$$++++++++++++++++++++++++++++++++++++++++$$$",
"OOOOOOOXX$$$$+++++++++++++++++++++++++++++++++++++++++++++++++++",
"OOOOOOOXX$$$$+++++++++++++++++++++++++++++++++++++++++++++++++++",
"OOOOOOOXX+++++++++++++++++++++++++++++++++++++++++++++++++++++++",
"OOOOOOOXX+++++++++++++++++++++++++++++++++++++++++++++++++++++++",
"OOOOOOOXX+++++++++++++++++++++++++++++++++++++++++++++++++++++++",
"OOOOOOOXX+++++++++++++++++++++++++++++++++++++++++++++++++++++++",
"OOOOOXX++++++++++++++++++++++++++++++++++++++++++XX+++++++++++++",
"OOOOOXX++++++++++++++++++++++++++++++++++++++++++XX+++++++++++++",
"OOOOOXX++++++++++++++++++++++++++++++++++++++++++XX+++++++++++++",
"OOOOOXX++++++++++++++++++++++++++++++++++++++++++XX+++++++++++++",
"OOOOOXX++++++++++++++++++++++++XX++++++++++++++++XX+++++++++++++",
"OOOOOXX++++++++++++++++++++++++XX++++++++++++++++XX+++++++++++++",
"OOOOOXX++++++++++++++++++++++++XX++++++++++++++++XX+++++++++++++",
"OOOOOXX++++++++++++++++++++++++XX++++++++++++++++XX+++++++++++++",
"OOOOOXX++++++XX++++++++++++++XX++++++++++++++++XX+++++++++++++++",
"OOOOOXX++++++XX++++++++++++++XX++++++++++++++++XX+++++++++++++++",
"OOOOOXX++++++XX++++++++++++++XX++++++++++++++++XX+++++++++++++++",
"OOOOOXX++++++XX++++++++++++++XX++++++++++++++++XX+++++++++++++++",
"OOOOOXX++++++XXXXXXXXXXXXXXXXXXXXXXXXXXXXXXXXXXXXXXXXXXXXXXXX+++",
"OOOOOXX++++++XXXXXXXXXXXXXXXXXXXXXXXXXXXXXXXXXXXXXXXXXXXXXXXX+++",
"OOOOOXX++++++XX############################################XXXX+",
"OOOOOXX++++++XX############################################XXXX+",
"OOOOOXX++++++XX##############################################XX+",
"OOOOOXX++++++XX##############################################XX+",
"OOOOOXX++++++XX##........########################........####XX+",
"OOOOOXX++++++XX##........########################........####XX+",
"OOOOOXX++++++XX..........########################..........##XX+",
"OOOOOXX++++++XX..........########################..........##XX+",
"OOOOOXX++++++XX%%........########################........%%##XX+",
"OOOOOXX++++++XX%%........########################........%%##XX+",
"OXXXX##XX++++XX%%........########################........%%XX+++",
"OXXXX##XX++++XX%%........########################........%%XX+++",
"OXX####XX++++XXoo..@@@@..########################..@@@@..ooXX+++",
"OXX####XX++++XXoo..@@@@..########################..@@@@..ooXX+++",
"OXX####XX++++XXoooo....############################....ooooXX+++",
"OXX####XX++++XXoooo....############################....ooooXX+++",
"XXX####XX++++XX############################################XX+++",
"XXX####XX++++XX############################################XX+++",
" XX####XX++++XX############################################XX+++",
" XX####XX++++XX############################################XX+++",
" XXXX##XX++++XX######################XX####################XX++X",
" XXXX##XX++++XX######################XX####################XX++X",
"     XX  XX++XXXXXXXX####################################XXXX++X",
"     XX  XX++XXXXXXXX####################################XXXX++X",
"         XX++XXOOOOOOXXXXXX########################XXXXXXOOXX++X",
"         XX++XXOOOOOOXXXXXX########################XXXXXXOOXX++X",
"         XX++XXOOOOOOOOOOXX####XXXXXXXXXXXXXXXXXXXXOOOOOOOOXXXXX",
"         XX++XXOOOOOOOOOOXX####XXXXXXXXXXXXXXXXXXXXOOOOOOOOXXXXX",
"           XXXXXXOOOOOOOOXX######XXOOOOOOOOOOOOOOOOOOOOOOOOXXXX ",
"           XXXXXXOOOOOOOOXX######XXOOOOOOOOOOOOOOOOOOOOOOOOXXXX ",
"             XX  XXOOOOXXXX######XXOOOOOOOOOOOOOOOOOOOOOOXX     ",
"             XX  XXOOOOXXXX######XXOOOOOOOOOOOOOOOOOOOOOOXX     ",
"                 XXXXOOOOOOXX##XXXXXXOOOOOOOOOOOOOOOOXXXXXX     ",
"                 XXXXOOOOOOXX##XXXXXXOOOOOOOOOOOOOOOOXXXXXX     ",
"               XXOOOOOOOOOOOOXXOOOOOOOOOOOOOOOOOOXXXXXX         ",
"               XXOOOOOOOOOOOOXXOOOOOOOOOOOOOOOOOOXXXXXX         ",
"             XXOOOOOOOOOOOOOOOOOOOOOOOOOOOOOOOOXXXX             ",
"             XXOOOOOOOOOOOOOOOOOOOOOOOOOOOOOOOOXXXX             ",
"           XXOOOOOOOOOOOOOOOOOOOOOOOOOOOOOOOOOOOOXX             ",
"           XXOOOOOOOOOOOOOOOOOOOOOOOOOOOOOOOOOOOOXX             ",
"           XXOOOOOOOOOOOOOOOOOOXXXXOOOOOOOOOOOOOOOOXX           ",
"           XXOOOOOOOOOOOOOOOOOOXXXXOOOOOOOOOOOOOOOOXX           ",
"           XXOOOOOOOOOOOOOOOOXX@@@@XXOOOOOOOOOOOOOOOOXX         "
};
