/* XPM */
static char *_1dff856cfb443598513efa407cddf0c34WYi3sduisetVdh[] = {
/* columns rows colors chars-per-pixel */
"64 64 241 2 ",
"   c None",
".  c #017DFA",
"X  c #018CD3",
"o  c #0A8CD5",
"O  c #038DDA",
"+  c #088FDA",
"@  c #0393DC",
"#  c #0695DA",
"$  c #1693DA",
"%  c #1089D4",
"&  c #2D98D5",
"*  c #34A6DD",
"=  c #0697E6",
"-  c #169BE8",
";  c #0C8CF2",
":  c #088AFC",
">  c #1989FA",
",  c #0B93FB",
"<  c #0B9DFA",
"1  c #0798F6",
"2  c #1494F3",
"3  c #1A9CFA",
"4  c #1997F7",
"5  c #218BFC",
"6  c #229BFC",
"7  c #2998FA",
"8  c #16A3EC",
"9  c #1CA6EC",
"0  c #1AA7EC",
"q  c #05A3FA",
"w  c #0BAAFA",
"e  c #09A4F6",
"r  c #1CA3FB",
"t  c #14ACFB",
"y  c #1BACFB",
"u  c #19A7F8",
"i  c #09B5F9",
"p  c #15B5FC",
"a  c #1BB4FC",
"s  c #1BBCFB",
"d  c #18BCF8",
"f  c #0DA2EB",
"g  c #22A5EC",
"h  c #36ABE5",
"j  c #22A4FB",
"k  c #23ADFB",
"l  c #2AAAFB",
"z  c #24A7F7",
"x  c #37AAF8",
"c  c #23B4FA",
"v  c #22BBFB",
"b  c #2ABBFC",
"n  c #27B5F9",
"m  c #34B4FC",
"M  c #33BDFB",
"N  c #36B5F5",
"B  c #46A4DB",
"V  c #429CF6",
"C  c #56B5EC",
"Z  c #4CAAF6",
"A  c #58A9F9",
"S  c #43BDFC",
"D  c #46B1F8",
"F  c #58B6F7",
"G  c #4AB4E8",
"H  c #6BB9E8",
"J  c #61BBF6",
"K  c #78B7F7",
"L  c #73BDEA",
"P  c #0CC5FA",
"I  c #14C2FD",
"U  c #1CC4FB",
"Y  c #15CAFB",
"T  c #1BCBFB",
"R  c #19CBF6",
"E  c #0BDBFB",
"W  c #15D3FC",
"Q  c #1CD4FC",
"!  c #1DDBFC",
"~  c #15D8FE",
"^  c #23C3FB",
"/  c #2BC4FC",
"(  c #23CCFC",
")  c #2CCCFB",
"_  c #27C8F7",
"`  c #33C5FB",
"'  c #33CBFB",
"]  c #3CCDFB",
"[  c #3CC7F9",
"{  c #23D4FC",
"}  c #2CD4FC",
"|  c #23DCFC",
" . c #2CDBFC",
".. c #27D5F7",
"X. c #34D4FB",
"o. c #3CD4FB",
"O. c #34DCFC",
"+. c #3BDCFB",
"@. c #38D5F6",
"#. c #1DE3FD",
"$. c #1AEAFB",
"%. c #23E3FC",
"&. c #2CE4FC",
"*. c #24EBFC",
"=. c #2CECFC",
"-. c #34E4FC",
";. c #3AE3FC",
":. c #34EBFC",
">. c #3BECFD",
",. c #35EFF7",
"<. c #25F2FD",
"1. c #2CF3FD",
"2. c #35F1FD",
"3. c #3BF3FD",
"4. c #3CF9FD",
"5. c #34FBFC",
"6. c #43C3FB",
"7. c #44CDFB",
"8. c #4CCBFB",
"9. c #48C7F9",
"0. c #53C3FC",
"q. c #54CDFB",
"w. c #59CDFA",
"e. c #58C4F9",
"r. c #43D4FB",
"t. c #4BD4FB",
"y. c #43DBFB",
"u. c #4CDCFB",
"i. c #4BD1F7",
"p. c #53D4FC",
"a. c #5CD3FC",
"s. c #53DBFB",
"d. c #5BDDFB",
"f. c #67C8FA",
"g. c #76CAF7",
"h. c #62D3FA",
"j. c #6AD7FA",
"k. c #65DCFB",
"l. c #6BDCFC",
"z. c #68DAF7",
"x. c #73DDFC",
"c. c #7ADBFB",
"v. c #75D6F9",
"b. c #44E4FC",
"n. c #4CE3FC",
"m. c #43ECFC",
"M. c #4CECFC",
"N. c #44EEF7",
"B. c #54E3FB",
"V. c #5BE3FB",
"C. c #53ECFB",
"Z. c #5BECFB",
"A. c #5BE7F7",
"S. c #44F3FD",
"D. c #4CF4FD",
"F. c #44FCFD",
"G. c #4BFBFD",
"H. c #54F3FC",
"J. c #5DF3FB",
"K. c #5CFBFC",
"L. c #55FAFD",
"P. c #66ECF7",
"I. c #64E3FB",
"U. c #6BE5FB",
"Y. c #63EBFB",
"T. c #6CECFB",
"R. c #65E4F7",
"E. c #74E3FB",
"W. c #7BE3FC",
"Q. c #74ECFB",
"!. c #7BECFB",
"~. c #75E8F7",
"^. c #63F3FB",
"/. c #6DF2FC",
"(. c #64FCFC",
"). c #6CFCFD",
"_. c #73F3FC",
"`. c #7CF4FC",
"'. c #73FAFC",
"]. c #7CFBFC",
"[. c #86BFE1",
"{. c #89C3E4",
"}. c #8BC4E7",
"|. c #98CBEC",
" X c #87C6F6",
".X c #92C6F3",
"XX c #8ADBF9",
"oX c #97D5F5",
"OX c #A5CFE9",
"+X c #A2CDE7",
"@X c #A8D4EB",
"#X c #B3D8ED",
"$X c #A3DAF5",
"%X c #A8D6F7",
"&X c #B7DEF7",
"*X c #A9CEF7",
"=X c #82E6FA",
"-X c #8BE4FB",
";X c #84EEFC",
":X c #89EAFA",
">X c #94ECFA",
",X c #98E8FB",
"<X c #84F5FB",
"1X c #8CF4FC",
"2X c #84FBFC",
"3X c #8BFCFC",
"4X c #9CF6FB",
"5X c #93FAFC",
"6X c #9CFCFC",
"7X c #92F4FC",
"8X c #B8E3F7",
"9X c #A4FDFD",
"0X c #ACFCFC",
"qX c #A9F5FB",
"wX c #B4FBFB",
"eX c #BAFCFD",
"rX c #B9F5F9",
"tX c #A1ECFB",
"yX c #C3DBEB",
"uX c #C1DEF9",
"iX c #C8E2EE",
"pX c #C8E6F4",
"aX c #DDECF3",
"sX c #D4E9F7",
"dX c #CCFBFD",
"fX c #C4FBFD",
"gX c #D6FDFE",
"hX c #DDF8FA",
"jX c #E6EEF4",
"kX c #E6F1F5",
"lX c #EDF3F4",
"zX c #EBFCFE",
"xX c #E6F8FC",
"cX c #F5F6F6",
"vX c #F9F6F5",
"bX c #F5F8F6",
"nX c #FEFCF6",
"mX c #F5F7F8",
"MX c #F3FCFD",
"NX c #FDFCFB",
"BX c #FAF7F9",
/* pixels */
"                          bXBX                                                                                                  ",
"                                                                                                                                ",
"                                                                                                                                ",
"                                                  nXjXiXsX|..X.X|.8XjXbXnXnX                                                    ",
"                                            nXnXlX&XN 1 u e q q q < 4 x J .XsXnX                                                ",
"                                        nXbXiXg.l < < u p U { ~ Q T U d i i y A %XlXnXbX                                        ",
"                                      NX%XD 3 1 u s ^ U I d a U Q Y I T R | *.W e 7 *XvXnX                                      ",
"                                    kXJ w Y %.*.Q I i p s U R Q %.| | Q I P #.$.Q I e D pX                                      ",
"                                nXpXN < a | 1.<.~ d v T | %.$.%.&.:.>.&.Q #.$.T W ! } y ,  X                                    ",
"                              vX Xr e r U ! <.=.&.%.! *.*.*.=.=.<.<.*.:.} -.( I W ~ !  .a , g.                                  ",
"                            lXC q u s { $.<.&.&.%.| { ) ....&.1.1.2.=.-.( v s s s T s Y } ) w F                                 ",
"                            C e v Q Q Y *.;.&.*.%. .( v c ^ ^ ) ' ` ) } T a { Q | #.T p ( _ c : A mX                            ",
"                          g.: r W #.Y Q ;.:.2.&.! ~ I p p p k v I i P $.&.~ %.%.%.%.Q Y *.{ v z . F bX            bX            ",
"                      pXJ w d R W T  .O. .| &.%.( !  .Q / ` y.H.J.I.I.o.( #.1.| &.*.} { ! ( U s k q 8XnX            BX          ",
"                  nXiX- < s Y W Q  .>.&.W &.:.Q { O.' ] @.O.;.b.C.Z.Y.k.7.Z.m.| :.:.&.&.^ p s U  .d l aX                        ",
"                nXkXg 1 k s d U %.-.| Q  .-.| ' ' X.X.o.o.+.O. .X.o.O...} B.V.@.&.&.>.,.+.k ^  .=.O.I V cX                      ",
"              NXlXh = 3 s U d { &.*.| *.&.=.b.7._ &.} v /  .X.+.@.] o.@.X.(  .b.-.*.&.-. .)  .Q  .&.3.q K                 BX    ",
"              cXG = 3 y T y T :.:.} | *.1.B.7.h.W._.+.d Q ( T -.@.u.X.7.] X.r.C.C.Z.^.t.w.b.>...T 2.>.;.7                 vX    ",
"            nXL = r j T c a :.&. .a ..&.C.O...n ` T.c.s.x.v.E.B.k.XX!.,Xx.s.7.l.-XQ.,Xx.~.7X;XT.s.L.,.3.v                       ",
"            aX$ 8 c ( { s +.;. .^ I =.t.r.,. ./ b.`.!.V.c.t.n.W.:X=Xx.k.V.s.+.+.X.X.y.P.;.] Z.J.d.;X3XC.-.                      ",
"          nX|.f z %.) ..&.M. .:.R %.i.r.,.>.B.M.b.&.) u.Q.,X-Xp.u.O.X.` ] +. .O.X.` ( R.!.v X.N.+.` (.1X/.                      ",
"          lXh f c } ) ) m.>.2.:.| +.r.,.^.B.;.( ;.R.>X>Xa.O.p.e.) o.] u.o.+.+.O./ X.-.O.R.C.' b.S.o.*.F.V.U.A vX                ",
"        nX@X= 9 6 / ` X.D.2.5.3.N.k.+.T.Y.@.&.z.-X`.Y. .' n.h.j.h.d.] v ' X.b.o.o.3.;.G.B.C.b.;.S.m.:.>...R.F *XnXmX            ",
"        lXB f j 6 / ' +.m.:.F.3.~.;X~.^.%.a.-X!.B.;.;.U.XXd.a.6.p.=XE.k.r.+.] ] H.G.b.D.^.~.y.-.S.-.&.-.;.&.e.Z aXnX            ",
"        #Xo 0 4 j } ' b.:.>.F.;.4X0X].3X>XU.n.>.:.u.=XQ.!.a.a.8.a.d.d.c.q.[ M >.C.C.M.K.K.2XV.} ;.X.&.:.3.b./ 7 G mXvX          ",
"        OX= 8 6 b &.' m.4.F.b.;.qX5X2X0X<X_.`.M.N.!.U.Q.Y.U.8.a.j.c.c.x.7.M C.J.M.^.^.(.(.J.n.) O.;.:... .N._ 5 = |.nX          ",
"        |.# - 6 ^ | O.S.F.>.X.d.;XqXwXK.Z.Z.B.T.:XP.I.E.Y.d.8.p.l.x.l.l.t.U._.(.C.).(.n.u.@.T.n.)  .:. ...&.} > = * bX          ",
"        }.# 4 6 s ( O.3.3.;.{ ,XrXU.^.2X].Q.y.I.1X!.W.E.E.E.s.V.T.l.w.p.I.4X2X3X(.C.p.y.@.O.C.A.' &. .O.} } @.5 4 # @X        mX",
"        }.@ 2 j k / ' *.-.-.Y.rXP.+.(.`._.3X_.1X2X].=XE.!.2X].(.2X_.V.d.!.0X5X_.b.@.B.C.b.m.H./.t.=.O.O.O.) ' 6 2 @ B           ",
"        }.X 4 r u / ` } } J.qX!.>.n.K.J.Z.'.4X1X9X0X3X`.2X4X6X5X3X'.2X3X3X3X=Xj.u.n.n.;.n.S.`.T.M.-.;.;.-.' / l > 8 $           ",
"        {.X - 3 y ) ` M B.1X;XT.;.m.H.Z.Z.Z.2XeX9X6X9XeX0XeXgXgXeX9XfX6XQ.k.W.!./.r.i.+.Z.L.2X^.G.n.m.-.;.X.` m > 8 o           ",
"        {.X 2 < y ( / 9.:Xm.V.B...n.m.b.n.n.V.9X9X6X9XgXzXMXNXMXzXzXwX'.U.`.7X5X'.N.J.C./.^.`.'.G.L.D.@.-.;.] m 4 0 + OX        ",
"        [.X , 3 a ( ` f.V.&.s.n.X.b.O.+.r.o.d.d.W.c.Q.4XfXzXNXMXNXzXdXeX6X0XeX6X4X^.(.(.'.^.<X'.L.L.F.;.:.+.' m 6 9 + OX        ",
"        [.X ; , a U 6.8._ :.+.o. .;.X.r.r.' q.7.w.8.8.^.3XdXMXNXNXMXzXzXeXeX0X2XwX1X_.Z.J.).3X].(.M.D.3.:.+./ m j 9 + OX        ",
"        [.o ; , p ^ S ] ^ &.u.y.{ :.+.o.o.o.t.a.l.v.k.'.6XeXzXNXxXgX0X6X6X9X0X7X5X3X<XM.^.].].2X(.D.F.3.3.b.] M k 9 # OX        ",
"        [.X ; : c 7.` o./ { s.V.%.=.b.o.u.s.s.V.B.c.k./.'.2XxXNX0X3X6X).U.Q.2X5X2X/.5XH.^.).3X).K.M.D.G.3.>.X.` l 9 # OX        ",
"        [.X ; > M f.) ` ) ) b.V.b.M.C.u.u.b.Y.d.r.a.w.a.Z.3XfXgX6X)./.Q.U.=XU.Z.T._.<X_.G.].6XD.K.N.D.D.N.>.X.b l g o OXNX      ",
"        |.O = . M M { X...) @.<XJ.M.-.n.;.b.r.q.k.l.q.0.k.3X0X9X].Y.w.p.Y.!.V.n.b.Z.4X5X4.6X].S.K.S.S.D.m.@.' l k g o OX        ",
"        #XO r . 0.n } } O.O.O.I.C.Y.:.b.` ] o.V.d.7.0.v.j.!.3X3XT.a.8.0.d.!.Y.n.N.m.B.Z.S.`.L.S.G.3.>.>.>.X.` n y g o OX        ",
"        yX- t 5 e.c ) X. .O.O.o.b.s.y.7.r.7.b.b.p.m t.x.=X7X6X1XI.h.a.8.p.V.T.;XZ.S.m.H._.T.m.>.3.=.:.:.-.' ' k 9 - % yX        ",
"        aXg p 7 A a ( +.+.>.O.' +.X.X.o.+.X.r.+.M 6.d.I.T.1X0X1XE.W.p.h.l.y.M.Z.<X1XZ.M.Z.C.b.m.>.3.:.2.X./ / u 0 $ & cX        ",
"        cXx a M Z y ( &.X.@.) { ] +.m.X.' o.) ^ / 7.d.U.:X!.T.Q.V.C.u.c.q.X.+.y.m.U.M.>.m./.`.C.D.F.2.:./ ^ b u - o +X          ",
"        bXF a ) e.c ! { n ) X.1.>.] m.b.X.r.M t.` ] s.B.A./.T.Z.U.I.r.] o.u.d.V.m.H.L._.D.`._.m.>.>.&.{ / ) v 0 @ B nX          ",
"          oXc / 8.m v v ' @.;.:.<.n.q.X.X.v o.I.a.I.Z.Q.`.Q.P.P./.V.r.d.k.n.+.-.m.>.^.T.>.m.>.>.-.-.*.) } } a = O yX            ",
"          aXM / ` x k v } @.-.-.&.-.l.] ^ ' m.o.` C.Z.P.].1X/.T./.n.' s.I.;.O. .;.B.C.=.m.D.3.:.m.2.) :.*._ 2 O H nX            ",
"          nXg.t / n l a _ @.O.1.@.} b.e.T m.m.) X.>.M.M.3.D.M.C.m.n.;.-.n.T.Z.b.V.!.H./.D.D.4.4.4.} X.:.&.j = & jX              ",
"            kXS d b l r v ..@.1.O.&.( ^ ] O.>.] +.3.m.C.N.D.m.H.D.b.;.b.:.,.C.W.!.!.Q.T.>.D.4.4.-.w.M...b ; = iXnX              ",
"            nXsXn p c j t |  .@.=._ U | O.j.r.X.M.b.S.D.D.m.S.S.S.S.m.2.>.V.!.Z.;.N.M.=.m.S.4.:.d.rX;Xw.u = #XnXbX              ",
"              nX8Xu t d R $.*.`  .^ ( &.! =.t.` D.M.S.S.S.3.S.S.3.:.:.M.!.T.M.,.:.&.:.-.M.F.&.z.wX<XrX6.= @XnXmX                ",
"                nX$Xq 1 d %.! n l ..+. .| *. .+.s.T.'.L.>.;.S.G.^.>.S./.M.:.,.=.=.b.C.N.C.y.' >X1X`.-X1 oXnXmX                  ",
"                  nX$XN 1 3 a a y -.S...%.:. .>.3.b.R.M.-.D.H.J.L.:.2.2.=.>.C.H.,X!.C.-.@.o.;.;.Z.1Xb }.nXbX                    ",
"                  mXnXnX.X: > d ! / >.S.| | } >.S.F.>.+.-.S.G.4.:.=.=.:.N.<X~.T.P.=.#.) } -.O. .a.h.c.nXmX                      ",
"                      mXnX X1 a U T ^ 2.S.} } 3.3.3.3.3.m.2.:.:.:.^.4X<X;XZ.N.S.*...T &.1.} X.U g.$XbX                          ",
"                        bXnXv.P k d Y _ :.:. .S.,.3.3.1.5.G.Z.u. .k.8X,XD.=.-. .X.} | %.{ ( P h.pXlX                            ",
"                              g.i a _ T ^ |  . .2.5.2.H.3XfXxX2X:.-.&.{ ( / ' X.X.{ ..^ | E w.kXbXnX                            ",
"                                .X1 u ( T s _ ..&.*.S.0XgXgX5X3.&.-.} ) X.-.=.&.O. .^ T E k.lXvXbX                              ",
"                                nXpX7 , y y p ` h.u.| O.+. . .}  .O. .&.1.*.&.&.} ^ Y P v.lXnXmX                                ",
"                                  nXkXK 6 F e.v h.,XqXZ.>.>.-.-.-.-.:.&. . .|  .T { r.oXvXvXmX                                  ",
"                                  bXvXnXpXjXcXuXXX X,XM.%.{ } }  .-.} / v / ! | ' XXjXnXvX                                      ",
"                                      bXnXNXmXvXnXbX$Xe.F [ ) T U i w t w a r.XXsXbXvX                                          ",
"                                        cXNXmXmXmXvXnXnXlXlXkXpX&X%X%X%X&XpXxXnX                                                ",
"                                                        NXBXBXnXNXnXNXnX                                                        ",
"                                                                                                                                ",
"                                                                                                                                "
};
