/* XPM */
static char *e00d0f218fcf446fcec751c0a1a56b35FiKr7qfO52ZdsqoE[] = {
/* columns rows colors chars-per-pixel */
"64 64 9 1 ",
"  c None",
". c black",
"X c #164557",
"o c #FF9800",
"O c #FFEB3B",
"+ c gray62",
"@ c gray80",
"# c #FFEBEE",
"$ c white",
/* pixels */
"                  O       OO      OO   OO                       ",
"                   OOOO   OOO     OOOO OO     OO                ",
"                  OOOOOOOOOOOOOOOOOOOOOOOOOOOOOO                ",
"                OOOOOOOOOOOOOOOOOOOOOOOOOOOOOOOO                ",
"                   OOOOOOOOOOOOOOOOOOOOOOOOOOO                  ",
"              ....   ........................O                  ",
"  ..............  ...........................OOO                ",
"..                   ........................                   ",
"                .............................                   ",
"             ...     OOOOOOOOOOOOOOOOOOOOOOOO                   ",
"             .       OOOOOOOOOOOOOOOOOOOOOOOO                   ",
"           ..        OOOOOOOOOOOOOOOOOOOOOOOO                   ",
".............        OOOOOOOOOOOOOOOOOOOOOOOO                   ",
".                    OOOOOOOOOOOOOOOOOOOOOOOO                   ",
"                       OOOOOOOOOOOOOOOOOOOO                     ",
"                       OOOOOOOOOOOOOOOOOOOO                     ",
"                        OOOOOOOOOOOOOOOOO                       ",
"                            OOOOOOOOOO                          ",
"                          .............                         ",
"                        .................                       ",
"                        .................                       ",
"                        .................                       ",
"              .....................................             ",
"         ...............................................        ",
"       ...................................................      ",
"       ...................................................      ",
"       ...................................................      ",
"       ...................................................      ",
"       ...................................................      ",
"       ...................................................      ",
"       ............ooooooooooooooooooooooooooo............      ",
"       ............ooooooooooooooooooooooooooo............      ",
"       ............ooooooooooooooooooooooooooo............      ",
"       ............ooooooooooooooooooooooooooo............      ",
"       ............ooooooooooooooooooooooooooo............      ",
"       ............ooooooooooooooooooooooooooo............      ",
"       ............ooooooooooooooooooooooooooo............      ",
"    @@ ............ooooooooooooooooooooooooooo............      ",
"       ............ooooooooooooooooooooooooooo............      ",
"       ............ooooooooooooooooooooooooooo............      ",
"       ............ooooooooooooooooooooooooooo............      ",
"         #######   ooooooooooooooooooooooooooo    ######        ",
"       ++#######   ooooooooooooooooooooooooooo    ######        ",
"  +++++++#######++ ooooooooooooooooooooooooooo    ########      ",
"       ++#######   ...........................    ######        ",
"                   ...........................                  ",
"                   ooooooooooooooooooooooooooo                  ",
"                   ooooooooooooooooooooooooooo                  ",
"                   ooooooooooooooooooooooooooo                  ",
"                   ooooooooooooooooooooooooooo                  ",
"                   oooooooooooo   $$$$$$$$$$$$XXXX              ",
"                   oooooooooooo   XXXXXXXXXXXXXXXX              ",
"                   oooooooooooo   $$$$$$$$$$$$XXXX              ",
"                   oooooooooooo   $$$$$$$$$$$$XXXX              ",
"                   oooooooooooo   ooooooooooooXXXX              ",
"                   oooooooooooo   oooooooooooo                  ",
"                   oooooooooooo   oooooooooooo                  ",
"                   oooooooooooo   oooooooooooo                  ",
"                   oooooooooooo   oooooooooooo                  ",
"                       #####          #####                     ",
"                       .....          .....                     ",
"                       .....          .....                     ",
"                   ##.......          ........##                ",
"                   .........          ..........                "
};
