/* XPM */
static char *_c0c43d3a47e471faaac2693d0c9e40267NlTlSsBSi76WBz[] = {
/* columns rows colors chars-per-pixel */
"64 64 11 1 ",
"  c None",
". c black",
"X c #164557",
"o c #FF9800",
"O c #FFEB3B",
"+ c #00BCD4",
"@ c gray62",
"# c gray80",
"$ c #FFCDD2",
"% c #FFEBEE",
"& c white",
/* pixels */
"                       OO   OO      OO       O                  ",
"                OO     OO OOOO     OOO   OOOO                   ",
"                OOOOOOOOOOOOOOOOOOOOOOOOOOOOOO                  ",
"                OOOOOOOOOOOOOOOOOOOOOOOOOOOOOOOO                ",
"                  OOOOOOOOOOOOOOOOOOOOOOOOOOO                   ",
"                  OOO..OO...............OOO   ....              ",
"                OOOOOOO..@@@@@.....@@@...OO...  ..............  ",
"                   OO....@@@.....@@@@@.....                   ..",
"                   OO...........................                ",
"                   OOOO%%%%%%%%%%%%%%%%%OOO     ...             ",
"                   OO%%%%+++++%%%+++++%%%OO       .             ",
"                   %%%%%%+..++%%%++.++%%%%%        ..           ",
"                   %%%%%%%%%%%%%%%%%%%%%%%%        .............",
"                   OO%%%%%%%%%%%%%%%%%%%%OO                    .",
"                     %%%%%$$%%%%%%%$%%%%%                       ",
"                     %%%%%%%$$$$$$$%%%%%%                       ",
"                       %%%%%%%%%%%%%%%%%                        ",
"                          %%%%%%%%%%                            ",
"                         .....@@@.....                          ",
"                       .......@@@.......                        ",
"                       .......@@@.......                        ",
"                       .......@@@.......                        ",
"             .................@@@.................              ",
"        ......................@@@......................         ",
"      ........................@@@........................       ",
"      ........................@@@........................       ",
"      ........................@@@........................       ",
"      ........................@@@........................       ",
"      ........................@@@........................       ",
"      ........................@@@........................       ",
"      ............oooooooooo..@@@..oooooooooo............       ",
"      ............oooooooooo..@@@..oooooooooo............       ",
"      ............oooooooooo..@@@..oooooooooo............       ",
"      ............oooooooooo..@@@..oooooooooo............       ",
"      ............oooooooooo..@@@..oooooooooo............       ",
"      ............oooooooooo..@@@..oooooooooo............       ",
"      ............oooooooooo..@@@..oooooooooo............       ",
"      ............oooooooooo..@@@..oooooooooo............ ##    ",
"      ............oooooooooo..@@@..oooooooooo............       ",
"      ............oooooooooo..@@@..oooooooooo............       ",
"      ............oooooooooo..@@@..oooooooooo............       ",
"        %%%%%%    oooooooooo..@@@..oooooooooo   %%%%%%%         ",
"        %%%%%%    oooooooooo..@@@..oooooooooo   %%%%%%%@@       ",
"      %%%%%%%%    oooooooooo..@@@..oooooooooo @@%%%%%%%@@@@@@@  ",
"        %%%%%%    ............@@@............   %%%%%%%@@       ",
"                  ............@@@............                   ",
"                  ooooooooooooooooooooooooooo                   ",
"                  ooooooooooooooooooooooooooo                   ",
"                  ooooooooooooooooooooooooooo                   ",
"                  ooooooooooooooooooooooooooo                   ",
"              XXXX&&&&&&&&&&&&   oooooooooooo                   ",
"              XXXXXXXXXXXXXXXX   oooooooooooo                   ",
"              XXXX&&&&&&&&&&&&   oooooooooooo                   ",
"              XXXX&&&&&&&&&&&&   oooooooooooo                   ",
"              XXXXoooooooooooo   oooooooooooo                   ",
"                  oooooooooooo   oooooooooooo                   ",
"                  oooooooooooo   oooooooooooo                   ",
"                  oooooooooooo   oooooooooooo                   ",
"                  oooooooooooo   oooooooooooo                   ",
"                     %%%%%          %%%%%                       ",
"                     .....          .....                       ",
"                     .....          .....                       ",
"                %%........          .......%%                   ",
"                ..........          .........                   "
};
