/* XPM */
static char *_761d1a62d4a47658dd83c6b25e62fd4NcHfxJGpcRnwd6pz[] = {
/* columns rows colors chars-per-pixel */
"64 64 225 2 ",
"   c None",
".  c #2E3110",
"X  c #401D0B",
"o  c #42240C",
"O  c #43280E",
"+  c #4A2A13",
"@  c #58391B",
"#  c #4B330F",
"$  c #613E1D",
"%  c #304808",
"&  c #3A4B2B",
"*  c #5B4815",
"=  c #67451E",
"-  c #67591C",
";  c #6A701B",
":  c #6B4824",
">  c #734C24",
",  c #7C5529",
"<  c #795427",
"1  c #785A39",
"2  c #7A6824",
"3  c #747C21",
"4  c #6F6521",
"5  c #5F7341",
"6  c #8D2D10",
"7  c #90461A",
"8  c #896C1C",
"9  c #855D2E",
"0  c #865C32",
"q  c #B15023",
"w  c #896636",
"e  c #946C39",
"r  c #897838",
"t  c #9C723C",
"y  c #957537",
"u  c #957121",
"i  c #B37323",
"p  c #D34631",
"a  c #FA593F",
"s  c #DD7836",
"d  c #E26C2F",
"f  c #846340",
"g  c #967444",
"h  c #8C6D4C",
"j  c #937961",
"k  c #749A0B",
"l  c #789A19",
"z  c #768F1D",
"x  c #7AAA05",
"c  c #7EAE16",
"v  c #7EAE1A",
"b  c #7AA119",
"n  c #7EB019",
"m  c #77A803",
"M  c #7D8623",
"N  c #789638",
"B  c #7E9D21",
"V  c #798A5B",
"C  c #8B9F1F",
"Z  c #82B202",
"A  c #85B50C",
"S  c #88B60C",
"D  c #89B806",
"F  c #85AC11",
"G  c #83AC1C",
"H  c #87A71D",
"J  c #86B512",
"K  c #89B613",
"L  c #8BB914",
"P  c #83B31B",
"I  c #8AB51C",
"U  c #8DBB1C",
"Y  c #91BE1E",
"T  c #89B707",
"R  c #878626",
"E  c #8A9B26",
"W  c #938B32",
"Q  c #8E9D33",
"!  c #A6873D",
"~  c #84AD22",
"^  c #88A727",
"/  c #94AD29",
"(  c #85B222",
")  c #8CB523",
"_  c #8DBB22",
"`  c #8AB62B",
"'  c #91BD23",
"]  c #94B229",
"[  c #93BC2B",
"{  c #99B729",
"}  c #8AAC32",
"|  c #8BB635",
" . c #94BD33",
".. c #97BA36",
"X. c #95A438",
"o. c #A5B932",
"O. c #B1BA3A",
"+. c #A5B62C",
"@. c #EBB22B",
"#. c #ECB632",
"$. c #EEBE3B",
"%. c #EEB936",
"&. c #EAAF26",
"*. c #C88B2D",
"=. c #94C11B",
"-. c #99C617",
";. c #93C124",
":. c #95C12A",
">. c #9BC42B",
",. c #9AC526",
"<. c #9AC335",
"1. c #9DC33C",
"2. c #96C232",
"3. c #A3CB2C",
"4. c #A1C32F",
"5. c #A1C53C",
"6. c #BAC13D",
"7. c #B6C33A",
"8. c #CDDC39",
"9. c #F0C13E",
"0. c #919952",
"q. c #B39643",
"w. c #AA8A40",
"e. c #9ABD4C",
"r. c #97BA45",
"t. c #9BBD55",
"y. c #8DAF44",
"u. c #9D8263",
"i. c #A8927A",
"p. c #A78E70",
"a. c #DBBA4D",
"s. c #9DC342",
"d. c #9CC24F",
"f. c #9EC259",
"g. c #A1C643",
"h. c #A3C64D",
"j. c #A3C45C",
"k. c #A7C759",
"l. c #B6C449",
"z. c #AECD64",
"x. c #A9C767",
"c. c #B0CF65",
"v. c #B4D16C",
"b. c #ADC677",
"n. c #B1CC75",
"m. c #BBD57B",
"M. c #B8D276",
"N. c #C3CC46",
"B. c #D5CA48",
"V. c #CCCC50",
"C. c #DBD259",
"Z. c #DFCE51",
"A. c #EAC94A",
"S. c #F2C545",
"D. c #F2CB4C",
"F. c #F2C74A",
"G. c #ECC953",
"H. c #F3CE52",
"J. c #EBD255",
"K. c #E1D95E",
"L. c #F5D155",
"P. c #F6D55C",
"I. c #F9D55B",
"U. c #F6D964",
"Y. c #F7DE6A",
"T. c #F9DE6C",
"R. c #F7D863",
"E. c #EEDD6B",
"W. c #F4E16E",
"Q. c #FAE374",
"!. c #F9E67B",
"~. c #F8E579",
"^. c #ECE06F",
"/. c #B39F86",
"(. c #B8B598",
"). c #C9BAA8",
"_. c #B6CE83",
"`. c #BBD581",
"'. c #BCD687",
"]. c #BFD591",
"[. c #B4C494",
"{. c #BDC7A1",
"}. c #C1D88B",
"|. c #C5DB93",
" X c #C5DA9A",
".X c #CADE9C",
"XX c #C4D698",
"oX c #D4D993",
"OX c #CCE09E",
"+X c #F5E597",
"@X c #CADDA5",
"#X c #D3DEAC",
"$X c #D3C8BC",
"%X c #D5DFB5",
"&X c #C7D4B4",
"*X c #CEE2A2",
"=X c #CFE3A9",
"-X c #D1E2A6",
";X c #D2E3AC",
":X c #D5E5B4",
">X c #DAE6BB",
",X c #F7E9A6",
"<X c #DDD4CA",
"1X c #E5DED4",
"2X c #DDE9C3",
"3X c #DDE6C5",
"4X c #E1EBC4",
"5X c #E2ECCB",
"6X c #E1E3C9",
"7X c #E7EAD7",
"8X c #E9F2D4",
"9X c #EDF3DD",
"0X c #F4F2CA",
"qX c #EFEBE5",
"wX c #F2EDE7",
"eX c #EEF4E2",
"rX c #F1F5E4",
"tX c #F2F6E9",
"yX c #F5F9EC",
"uX c #F6F9E8",
"iX c #FAFCF4",
"pX c #FFFFFF",
"aX c #FEFFFD",
"sX c #FEFEFD",
"dX c #F7FAF3",
/* pixels */
"                                                                                                                                ",
"                                                                                                                                ",
"                                                    pX      8X;X*X-X-XOXm.c.m.}.|.4XiXpX                                        ",
"                                                    pX  pX5Xh.S Z x A S D -.-.-.D 2.`.rXpX                                      ",
"                                                    pX  pXOXY Z Z Z U L -.-.=.[ I S L `.iX                                      ",
"                                                        rX}.=Xc.S K Y =.,.>.}.5X:Xx.K <.5XpX                                    ",
"                                                      aX#X8XpX5X<.U Z U >.|.aXpXpXrXx.K |.aX                                    ",
"                                                      9X-X8XrXuXh.U A U k.uXaX9XyXaX5X[ c.iX                                    ",
"                                                pX    2X_.N [.>X1.K U U }.aX|.N &X7XdXx.s.eXpX                                  ",
"                                                pX  aX=Xy.% . N U A U ;.*XeXN . & y.eXm.` 2XpX                                  ",
"                                                    eX].{.V % b ;.Y =.;.`.yX[.5 % 0.eXb.K ].pX                                  ",
"                                                  pX=Xs.@X_.} _ ;.=.' ;.s.>XtX{.[.7X3X1.U t.uX                                  ",
"                                                  eXd.U [ 2.:.;.;.;.;.;.;.s.|.2X5X&Xk.3.;.` 5X                                  ",
"                                                  ;Xv v n ;.;.;.;.;._ ;.:.;.;.<.s.3.3.3.,._ >X                                  ",
"                                                  ].v v P :.;.;.;.;.8.8.,.;.;.:.3.3.3.3.,.` >X                                  ",
"                                                  @Xv n ( ;.;.;.;.;.;.:.;.;.;.;.:.,.,.,.;.2.                                    ",
"                                                  7X| v n _ ;.:.;.=.;.;.;._ ] { ;.;.' ' _ n.                                    ",
"                                                    ].( v P _ ] ] ] / H R 8 u ' ;.;.;.Y e.8X                                    ",
"                                                       X| c G u 7 7 6 q p q / ;.;.;.U f.5XsX                                    ",
"                                                        5Xb.` C 7 6 p a s +.;.=.:...].rXpX                                      ",
"                                                          iX>Xf.C i d *.{ ;.' ^ 0.6XpXpX  pX                                    ",
"                                                            pXeXf.Y { ' ;.P 3 , e (.dXpXpX                                      ",
"                                                              pX XY Y U P z # , g e p.<XiXsX  pX                                ",
"                pXpXiXiXiXiX                                  uXv.>.4.{ _ E # = e g , 1 i.<XiX                                  ",
"  pX    iXdXrX9X4X-Xm.k.z.v.'.=X8XiX                      uX>XM.N.E.E.N.;._ ; @ < t e > : 1 /.wX                                ",
"  .X`.M.v.z.k.h.g.<.<.,._ =.=.;.<.x.*X8XdXpXpXpXaXyX5X*Xm.h.5.B.D.F.T.^.7.,.` ; = > 0 , > > w u.7X                              ",
"rXz.' =.>.<.1.1.2.;.;.;.;.;.;.;.U Z L [ k.m.|.|.m.k.<.;.U ' B.L.F.F.H.Q.K.<.;.:.^ R 2 e e 9 > w j 7X                            ",
"pXrX:X X|.|.'.h.K L A Z J ;.;.;.;.U A A Z S S =.=.;.;.;.) V.Y.L.U.Q.T.U.Y.K.7.{ ) U ) / Q W 2 > 0 p.qX                          ",
"              4X<.=.L A x U ;.;.;.;.;.=.J A L ;.;.;.' P l.Q.R.U.!.!.Q.P.P.P.H.A.Z.{ _ ;.;.:.) E 8 9 i.                          ",
"                -X .;.=.S Z U ;.;._ _ ;.;.;.;.;.;.U v ..^.Q.P.Q.!.Q.R.I.P.P.D.%.F.7.P [ ;.;.=.A F r y ).                        ",
"                  .X<.=.S K ;.;.;.P n P U _ _ _ P G P C.!.P.P.!.!.T.P.P.P.P.H.D.S.7.n ;.;.;.;.A x F R g 1X                      ",
"                    >XM.:.=.:.2.P c n n v n n n c ` l.~.Q.D.L.!.Q.Y.P.P.P.L.H.I.L.6.n ( ;.;.;.=.S Z I M /.pXpX                  ",
"                      iX|.`.>X>X_.e.` v v ~ | e._.>X+XU.H.#.#.H.L.L.H.L.D.S.H.P.L.B.G P ;.;.;.U K L A J 0.7X  pX                ",
"                        aX  pX  aXtX3X:X@X:X5XyXpXrX~.Y.H.#.F.U.T.Y.P.L.D.D.L.P.P.J.o.n _ ;.;.;.;.U U S U c.>XyXaXpXiXyXpXpXpX  ",
"                                                  0X~.Q.H.F.Q.!.!.W.U.I.P.P.P.P.P.P.A.o.P ;.;.;.;.;.' J J Y 1.k.m.}.c.k.5X9XaX  ",
"                                                pX,X!.T.F.H.!.T.R.P.I.I.P.P.P.P.P.A.9.A.7._ :.;.;.;.;.' ;.;.:.;.;.Y Y [ h.k.eX  ",
"                                                iX+XQ.R.$.F.U.P.P.P.P.P.P.P.P.L.H.S.F.D.G.o.) =.;.;.;.;.;.;.:.:.:.;.' ' ` ].iX  ",
"                                                aX+XI.H.#.@.F.L.H.H.H.H.H.D.D.D.G.L.I.P.L.a.- z ' ;.;.;.;.;.;.;.;.' _ U <..XdX  ",
"                                                iX+XT.T.S.$.U.!.Y.P.P.L.P.L.L.P.P.P.P.P.R.P.> o 4 Q { ;.;._ P _ Y U U ' _ c.yX  ",
"                                                  +X!.Q.D.F.!.Q.U.P.R.P.P.P.P.P.P.P.P.P.P.P.y X = w / ;.U ^ f.x.x.x.f.x. XeXpX  ",
"                                                  ,X!.W.H.S.!.R.R.P.P.P.P.P.P.P.P.I.P.P.H.H.! o @ y [ ;.^ 0.rXiXiXdXdXdXpXpX    ",
"                                                  ,X!.Y.D.%.G.L.H.L.H.H.H.H.H.H.H.L.H.H.S.F.! + $ W [ ;.R i.pX              pX  ",
"                                                  uXW.P.S.#.#.L.R.L.L.L.L.L.L.L.L.L.L.L.F.D.q.. - / ;.~ 2 ).pX                  ",
"                                                  aX,XR.U.H.F.Q.Q.R.P.R.P.P.P.P.P.I.P.P.I.H.q.O - E / 2 1 6XpX                  ",
"                                                  aXoXW.Q.P.D.W.Q.P.P.P.P.P.P.H.H.L.J.J.I.P.w.+ = e t < u.iX                    ",
"                                                  eXr.V.T.I.L.G.R.P.P.P.P.L.D.A.B.7.] ) 6.P.t # < t e 9 ).pX                    ",
"                                                  :X:.{ J.R.L.$.H.P.P.P.S.S.A.O._ v v k x O.: @ 0 t w g wX                      ",
"                                                  m.U _ { J.L.S.%.D.D.9.S.A.[ ` |  .| ( v z $ : e t 0 ).                        ",
"                                                yXh.S ;.P o.J.P.S.@.&.%.J.o.) >.1.1.s. .( v 3 9 0 , i.dX                        ",
"                                                8X..Y ;._ n { J.H.#.#.P.l._ >.5.1.1.1.:.U P G W w j qX                          ",
"                                                >XU J ' ' P n ) a.a.G.q.M ;.g.<.s.<.:.;.;.;._ v 0.7X              pX            ",
"                                                ;Xx k G :._ n n c - * O @ r r.g.1.:.;.;.;.U L A | 2XpX                          ",
"                                                 Xk k b I ;.P n b * . + $ 1 h ..1.) G G ' ' L K x y.5XpX                        ",
"                                                .Xk l b ' ;._ n v 0.h 1 1 w 1 1 X.G l l ~ ;.;.L Z Z x.uX                        ",
"                                                |.F v Y ;.;.;._ ( 3XqX<X$X$X$X<X6Xx.l H H ' ;.' I L G @XpX                      ",
"                                                |.Z U ;.;.;.5.<.| 3XpX      pX  sX8Xr.) ' ;.;.;.L I x e.yX                      ",
"                                                -XA K Y ' :.1.g. .@XpX        pX  pX-X>.;.;.;.;.' U Z | 9X                      ",
"                                                4X;.Y I 2.:.>.1. ._.pX          pX  yXc.=.;.;.;.;.;.U e.tX                      ",
"                                                8Xg.1.5.g.<.;.;.2.x.yX                :X>.;.;.;.;.;._ ].aX                      ",
"                                                OX..g.g.5.1.<.;._ r.eX          pX  pX9Xs.;.;.;.;.U d.eX                        ",
"                                                / ^ <.] | s./ ) _ r.eX        pX    iXXX..Y F Y J } :X                          ",
"                                                ^ ^ r./ } ..H l | n.iX          pX  %X^ I F k ^ r.#XaX                          ",
"                                              yX6X3X3X5X5X3X>X>X5XyXpX              uX%X:X#X%X3XrX                              ",
"                                                                                pX                  pX                  pX      "
};
