/* XPM */
static char *c437aa48c02f469282fedde2bbcdbf95E6rpvz82vn6WqwBG[] = {
/* columns rows colors chars-per-pixel */
"64 64 222 2 ",
"   c None",
".  c #283A19",
"X  c #553216",
"o  c #4B2912",
"O  c #663E1C",
"+  c #2D4018",
"@  c #5A4316",
"#  c #64431D",
"$  c #694C1D",
"%  c #635C19",
"&  c #6A721B",
"*  c #69641C",
"=  c #445824",
"-  c #6B4421",
";  c #6F4A22",
":  c #674020",
">  c #734C25",
",  c #784F28",
"<  c #755225",
"1  c #775128",
"2  c #7C542A",
"3  c #7D572C",
"4  c #775F36",
"5  c #796625",
"6  c #777C24",
"7  c #65764B",
"8  c #815B2E",
"9  c #80572D",
"0  c #845D31",
"q  c #895F35",
"w  c #896B2F",
"e  c #8B6235",
"r  c #85623D",
"t  c #8D6738",
"y  c #916B3A",
"u  c #977A35",
"i  c #847E2C",
"p  c #8A6943",
"a  c #947451",
"s  c #987F63",
"d  c #7A9D05",
"f  c #7A9915",
"g  c #7D841F",
"h  c #7CA809",
"j  c #7DA917",
"k  c #7B8522",
"l  c #7F9823",
"z  c #778B4C",
"x  c #7E8E64",
"c  c #839810",
"v  c #83A80C",
"b  c #83B20D",
"n  c #86B407",
"m  c #83AD14",
"M  c #83AD1D",
"N  c #85A719",
"B  c #83B214",
"V  c #85B31B",
"C  c #89B61D",
"Z  c #8CBB1C",
"A  c #8AB714",
"S  c #91BD1D",
"D  c #839925",
"F  c #8A9530",
"G  c #A6853B",
"H  c #BA963A",
"J  c #8AA625",
"K  c #86A825",
"L  c #8AB523",
"P  c #8EBB22",
"I  c #8AB529",
"U  c #91BE23",
"Y  c #91BD2A",
"T  c #97B827",
"R  c #92AD3A",
"E  c #8EB735",
"W  c #92BC34",
"Q  c #94BA3B",
"!  c #96B93B",
"~  c #85A439",
"^  c #A9BE2A",
"/  c #C0BB3C",
"(  c #EAB22B",
")  c #EEBC3A",
"_  c #ECB834",
"`  c #F0BF3A",
"'  c #92C01D",
"]  c #8FC01E",
"[  c #93C124",
"{  c #9AC524",
"}  c #95C12A",
"|  c #9AC32C",
" . c #9ECA29",
".. c #97C332",
"X. c #9BC435",
"o. c #9CC33C",
"O. c #9FC832",
"+. c #A1CB2B",
"@. c #A6C32F",
"#. c #A3C534",
"$. c #B5C437",
"%. c #CDDC39",
"&. c #CDC33A",
"*. c #EEC13C",
"=. c #958A49",
"-. c #B69648",
";. c #93B644",
":. c #95BD44",
">. c #98BB48",
",. c #9CBC55",
"<. c #92A85D",
"1. c #A6BB56",
"2. c #AD946C",
"3. c #AA906C",
"4. c #B3AE71",
"5. c #91A767",
"6. c #C8A64C",
"7. c #CFB254",
"8. c #D9B953",
"9. c #CBBB45",
"0. c #D1B87E",
"q. c #9DC343",
"w. c #9EC24C",
"e. c #9EC156",
"r. c #A1C642",
"t. c #A2C54B",
"y. c #A6CA49",
"u. c #A6C954",
"i. c #A4C55C",
"p. c #A6C858",
"a. c #A6C663",
"s. c #AECE63",
"d. c #ADC96C",
"f. c #A7C66B",
"g. c #B3D169",
"h. c #ADCC74",
"j. c #ACC675",
"k. c #B3CC7A",
"l. c #B5D374",
"z. c #BBD47C",
"x. c #B9D376",
"c. c #B1CF6F",
"v. c #D7C946",
"b. c #CFCE4F",
"n. c #EEC242",
"m. c #E4CE4B",
"M. c #F1C444",
"N. c #F2CB4C",
"B. c #F1C747",
"V. c #E5CA54",
"C. c #F3CE52",
"Z. c #EBD65C",
"A. c #F5D155",
"S. c #F6D45C",
"D. c #F9D65B",
"F. c #CFC97D",
"G. c #F6D661",
"H. c #F6D963",
"J. c #F6DD6B",
"K. c #F9DE6B",
"L. c #F8DA65",
"P. c #EBCF64",
"I. c #F9E16F",
"U. c #F9E374",
"Y. c #FBE67A",
"T. c #FAE87D",
"R. c #B39E84",
"E. c #B29F91",
"W. c #B4A188",
"Q. c #BEAC97",
"!. c #A7B68D",
"~. c #BFB3A2",
"^. c #C1AF98",
"/. c #CBBDAA",
"(. c #B8C681",
"). c #BBD483",
"_. c #BCD589",
"`. c #BDCD96",
"'. c #B9C2A6",
"]. c #C2DA8B",
"[. c #C1D989",
"{. c #C2D595",
"}. c #C9DC9C",
"|. c #C6DA96",
" X c #C2CF8E",
".X c #C8E199",
"XX c #CADBA4",
"oX c #CDDCAA",
"OX c #CDC3B3",
"+X c #D3DBB4",
"@X c #D1D4B7",
"#X c #CEE1A7",
"$X c #D2E3AD",
"%X c #D2E3A6",
"&X c #D5E3B4",
"*X c #DBE5BC",
"=X c #DCE9BE",
"-X c #DAE8B4",
";X c #D3F9BC",
":X c #DCDBC8",
">X c #E0DCD2",
",X c #E1D9CE",
"<X c #DDE9C1",
"1X c #E4ECCC",
"2X c #E4ECC8",
"3X c #E4EDD2",
"4X c #EAECD9",
"5X c #E7F1D3",
"6X c #EAF1D3",
"7X c #EDF3DC",
"8X c #E4F0CF",
"9X c #ECEAE2",
"0X c #F3EFE9",
"qX c #EEF5E1",
"wX c #F2F6E4",
"eX c #F4F6EB",
"rX c #F6F9EC",
"tX c #F6F9EA",
"yX c #FAFCF4",
"uX c #FFFFFF",
"iX c #FEFEFD",
"pX c #F6F5F2",
/* pixels */
"                                                                                                                                ",
"                                                                                                                                ",
"                                                          uXyXtXwXwXtXrXwX7XqXyX                                                ",
"                                                        wX}.d.e.q.:.w.w.q.Q Q ).rX                                              ",
"                                                      7Xi.Z B C Z V V P j j V } 2XuX                                            ",
"                                                    yXz.C P :.:.L [ P L L } h.h.k.yX                                            ",
"                                                    7Xr.W {.wXqX_.W [ V B w.rXyX`.#XuX                                          ",
"                                                    =XY _.yXrXyXiX_.] P Z s.1X'.3X).7X                                          ",
"                                                    #X..1XoXz '.3X5Xq.P V r.<.+ 7 j.&XiX                                        ",
"                                                    _.w.7X5.. . x 4Xa.] Z } ,.7 7 +X_.yX                                        ",
"                                                    g.o.5X*Xx = !.7Xw.] [ } o.).<X&Xa.wX                                        ",
"                                                  6Xq.[ _.wXqX4X7Xz.[ [ [ [ ..r.u.Q Q `.yX                                      ",
"                                              uXtXl.+.+.+.g.].].u.} [ [ %.[ ..r.o.o.E ;.<X                                      ",
"                                uX              =X+.+.+.+.' ' ' [ [ [ %.;X%.X.q.X.q.Q E XX                                      ",
"                                                6Xy.{ { | s.p.o.[ [ ' [ [ [ } X.o.o.W I <X                                      ",
"                                                iX%XO.' } y..X<X%Xl.u.o.......o.q.I j h.yX                      uX              ",
"                                                uXeX(.T U U | x.1XyXtX7X5X<X8X3X_.K f.wX                    rX=XwX              ",
"                                                yXW.p 5 D J U [ o.z.=XwXyXiXeX&X;.f.wX                      .X#.-X              ",
"          -X                                    0Xa q 2 O X * D [ ' } t.c.c.,.;.|.rX                  uXwX_.} y.6XtX7X7XyX      ",
"          x.#.-X                                iXR.0 8 - X o & V C Z L K K (.9X        uX            $Xt.[ } o.s.u.o.o.z.wX    ",
"          .X .#..XyX                              OX0 0 > : X 6 P V j j % # =.>X                  7X)...[ [ } U Z P P P [ l.    ",
"  $X).l.g.y.{ +.#..XtX      uX                    W.2 0 < * k I [ [ P Y D * ; p @X          yX5X|.q.' [ P P U P Z Z [ U Z i.    ",
"  Y ] ] S ' } +.+.O.u.g.z.)._.]._.].|.}.$X=X5XwXOX4 5 i D M L [ [ [ } } } U J g =.:XuXrX1X}.a.E C P [ } [ [ [ [ [ C P U o.).    ",
"  S [ [ U [ } [  .{ [ ' ' ' U ' Z Z V m M U o.t.R D T P U V U [ [ } U } @.T } C N 1.x.p.W V B V [ [ [ [ [ P [ ' [ P P Y l.5X    ",
"  Z ' U P [ [ [ [ } [ [ [ [ [ [ } U U U S U } [ [ } } } U P [ [ [ U $.V.n.v.$.[ [ [ ' ' [ [ [ [ [ [ [ [ P I q.w.w.w.w.u.i.&X    ",
"  h.p.o.P [ [ [ [ [ P [ [ [ [ [ [ [ [ [ [ [ [ [ [ } } } } U [ P S b.J.I.H.C.Z.| [ } [ [ [ [ [ [ [ [ Z Y e.oXqXeXwXwXeXrXyX      ",
"    %Xq.Z [ P U U I L Z [ [ [ [ [ U [ [ } [ U L P Y U U U P T $.V.I.T.T.T.S.I.b.} U [ [ ' S Z Z P Q a.&XrXiX                    ",
"    #X).}.}.#X&X&X&XXXk.i.:.W Y U Y Y P N D D D 6 5 F v.v.v.m.S.J.J.J.J.J.N.S.Z.$.Y P W Q w.a.).#X3XyXuX                        ",
"                      uXyXqX3X<X*XXX=.G 5 $ 8 e 8 O 6.M._ ` N.C.N.N.A.A.B.( ) N.A.9.4.1X7XeXyX                                  ",
"                                uX/.y e 2 2 t r 9 > 7.A.C.M.M.C.I.I.I.I.G.n._ C.D.H R.                                          ",
"                                pXs q 0 > r r q , G S.S.G.G.L.I.I.I.U.T.U.I.M.S.T.7.W.                                          ",
"                                ,Xy q , , r r 8 9 8.G.S.D.S.S.G.D.D.D.I.U.%XC.C.Y.P.2.pX                                        ",
"                                /.8 e 3 9 e 8 > G C.A.S.S.S.D.S.D.D.D.S.H.I.C.n.L.S.-.,X                                        ",
"                                ^.2 e , O > ; O 6.N.B.N.C.C.C.C.A.A.S.S.C.B._ _ N.D.7.^.                                        ",
"                                Q.8 0 - - , # < V.S.S.S.A.L.I.U.U.U.U.U.U.H._ n.K.K.8.2.                                        ",
"                                ^.e 3 > r e , w S.D.S.S.S.L.K.I.U.Y.Y.Y.Y.U.n.C.Y.Y.P.2.                                        ",
"                                OXe 8 < y e 1 G S.A.D.S.S.S.S.S.G.G.K.U.Y.U.n.C.U.K.V.3.                                        ",
"                                ,Xp 2 > t e , -.A.C.A.S.S.S.S.S.A.A.D.D.H.S._ C.G.G.8.R.                                        ",
"                            tX7X9X=.- > q e > H N.*.N.N.C.S.G.S.G.G.D.D.N._ ( M.S.G.6./.                                        ",
"                          -Xp.q.e.=.$ : 0 e > u D.D.H.S.H.U.U.U.Y.Y.I.%XK.) A.K.G.8.s 0X                                        ",
"                        oXJ S ' P P K & ; t < w S.A.A.S.S.S.H.J.U.Y.Y.Y.J.C.Y.Y.J.-.^.                                          ",
"                      6XR d C [ [ P L j k < : : 8.A.C.B.B.A.S.S.G.L.U.U.C.S.H.H.V.4.pX                                          ",
"                      (.v m A U [ } L j K l @ o w V.A.D.C.n.N.D.S.S.G.A.N.S.D.V.4.9X                                            ",
"                    wXR d m S U [ [ [ V j P j & f S @.$.v.A.n.M.S.D.D.M.B.S.C.0.9X                                              ",
"                    *XN b n ] [ [ [ } ] ] L V [ [ [ [ Z S ^ m.*.) B.*.( *.m.F.wX                                                ",
"                    }.f m h A [ [ [ [ [ ] } [ } [ [ ] U T n S m.) ) *.*.&.#.8X                                                  ",
"                    {.d R p.Q L b ] ] } [ [ [ [ [ [ P C V n v / v.&.@.T ] p.rX                                                  ",
"                    6X X1XyXqX<X_.w.] h P [ [ [ [ } Z j N D i D n Z S [ ] [.                                                    ",
"                  uX              rX=Xd.L h h j B S E d.&X>X@XE Z [ [ } } -X                                                    ",
"                                        *Xf.~ ~ ;._.1XyXuXuX|.B [ [ [ P o.5X                                                    ",
"                                            wX4XeXuX  uX  tXw.C [ [ M N q.tX                                                    ",
"                                                          #Xj C [ L j f i.yX                                                    ",
"                                                      uXyXe.j P } [ K V g.yX                                                    ",
"                                                        *XL Z V P [ [ [ l.iX                                                    ",
"                                                      uXj.h P P [ [ [ ] z.iX                                                    ",
"                                                        ;.B P [ [ [ [ ] ).uX                                                    ",
"                                                      wX! A S U [ [ U S l.yX                                                    ",
"                                                        c.n S [ [ [ Y U t.6XuX                                                  ",
"                                                      uX5X>.A S Z m C P v 1.tX                                                  ",
"                                                        uX6Xd.! K f v N c N 2X                                                  ",
"                                                      uX  uX  qX1X<X&X+X&X*XrX                                                  ",
"                                                                                                                                ",
"                                                                                                                                ",
"                                                                                                                                "
};
