/* XPM */
static char *c70f71eee5644f4d8692bc35c9956220aaEbCToT2GUjmIBx[] = {
/* columns rows colors chars-per-pixel */
"64 64 256 2 ",
"   c #0A161A",
".  c #16161A",
"X  c #131116",
"o  c #2C1514",
"O  c #0F211C",
"+  c #362B18",
"@  c #171925",
"#  c #101529",
"$  c #251A27",
"%  c #19272B",
"&  c #1B2B33",
"*  c #1B2936",
"=  c #1A3338",
"-  c #122E2B",
";  c #272929",
":  c #2A3329",
">  c #383528",
",  c #252C37",
"<  c #24333B",
"1  c #283739",
"2  c #373738",
"3  c #392B2A",
"4  c #48361A",
"5  c #4C3216",
"6  c #483928",
"7  c #573B29",
"8  c #473A37",
"9  c #583A37",
"0  c #452B2C",
"q  c #6D3530",
"w  c #27463B",
"e  c #39463C",
"r  c #284C33",
"t  c #164D38",
"y  c #4A4328",
"u  c #564728",
"i  c #494638",
"p  c #584B37",
"a  c #585635",
"s  c #664829",
"d  c #685639",
"f  c #765A3A",
"g  c #6F4C35",
"h  c #776539",
"j  c #6F6637",
"k  c #644F26",
"l  c #1C3647",
"z  c #163350",
"x  c #292C46",
"c  c #342B49",
"v  c #293847",
"b  c #363848",
"n  c #293957",
"m  c #373857",
"M  c #302D55",
"N  c #353B65",
"B  c #172C58",
"V  c #473B47",
"C  c #4D3750",
"Z  c #6D3345",
"A  c #463D64",
"S  c #1D4A4B",
"D  c #1E4A55",
"F  c #1C5258",
"G  c #1B5348",
"H  c #2B4444",
"J  c #2C434B",
"K  c #244B4B",
"L  c #274848",
"P  c #35464A",
"I  c #29524C",
"U  c #2B4453",
"Y  c #254B53",
"T  c #2B4A54",
"R  c #2C4D59",
"E  c #264858",
"W  c #324553",
"Q  c #324C54",
"!  c #334D5B",
"~  c #384858",
"^  c #2C535B",
"/  c #285457",
"(  c #33535D",
")  c #36565A",
"_  c #32534A",
"`  c #184C6D",
"'  c #294965",
"]  c #354966",
"[  c #295563",
"{  c #335562",
"}  c #345C62",
"|  c #3A5667",
" . c #325176",
".. c #386266",
"X. c #3A7072",
"o. c #474746",
"O. c #574B45",
"+. c #595547",
"@. c #464758",
"#. c #465258",
"$. c #575659",
"%. c #4F5052",
"&. c #695748",
"*. c #765847",
"=. c #655855",
"-. c #6E504E",
";. c #576557",
":. c #6C6447",
">. c #786647",
",. c #7C7449",
"<. c #696557",
"1. c #766859",
"2. c #787556",
"3. c #494767",
"4. c #554A69",
"5. c #485767",
"6. c #474C74",
"7. c #475977",
"8. c #575879",
"9. c #575667",
"0. c #6A5D6E",
"q. c #53646F",
"w. c #6A6768",
"e. c #766A68",
"r. c #7B7567",
"t. c #696678",
"y. c #746C78",
"u. c #787478",
"i. c #6A7572",
"p. c #A13738",
"a. c #8D5634",
"s. c #A6573A",
"d. c #B25530",
"f. c #8C673B",
"g. c #B06439",
"h. c #B74C18",
"j. c #CB6A34",
"k. c #D26230",
"l. c #A23248",
"z. c #855947",
"x. c #92554A",
"c. c #AB5949",
"v. c #896948",
"b. c #95684A",
"n. c #88764B",
"m. c #97784A",
"M. c #886A54",
"N. c #8A7657",
"B. c #977758",
"V. c #956B54",
"C. c #A66446",
"Z. c #A77857",
"A. c #AE6C50",
"S. c #877868",
"D. c #967769",
"F. c #877877",
"G. c #8A6D6C",
"H. c #A57768",
"J. c #CB754E",
"K. c #EC7B4B",
"L. c #C1654E",
"P. c #7C8578",
"I. c #7F815A",
"U. c #988658",
"Y. c #95854E",
"T. c #A68759",
"R. c #BA955B",
"E. c #AF8D53",
"W. c #B5A553",
"Q. c #988767",
"!. c #878678",
"~. c #998877",
"^. c #93906D",
"/. c #A79666",
"(. c #B9966A",
"). c #B89974",
"_. c #AB8B6E",
"`. c #B5A770",
"'. c #C88F56",
"]. c #EA844A",
"[. c #E88858",
"{. c #F78753",
"}. c #CCB052",
"|. c #CD906D",
" X c #C5AA77",
".X c #CCAD6C",
"XX c #EC8E65",
"oX c #E6D950",
"OX c #E1D35D",
"+X c #BB9934",
"@X c #2C5886",
"#X c #306298",
"$X c #585B85",
"%X c #485886",
"&X c #625D8A",
"*X c #586587",
"=X c #516C8D",
"-X c #676689",
";X c #78778A",
":X c #696B95",
">X c #70738D",
",X c #757CAE",
"<X c #4C74AE",
"1X c #707AC2",
"2X c #837B84",
"3X c #887E90",
"4X c #778790",
"5X c #738CB0",
"6X c #6088A0",
"7X c #6F96CE",
"8X c #569FE3",
"9X c #4DA2ED",
"0X c #8B8886",
"qX c #968A85",
"wX c #969589",
"eX c #868797",
"rX c #989597",
"tX c #908E94",
"yX c #A69896",
"uX c #A9928B",
"iX c #B0A993",
"pX c #888AA6",
"aX c #9796A6",
"sX c #8D93B2",
"dX c #A999A8",
"fX c #99A7B9",
"gX c #97AAB3",
"hX c #A8A7B9",
"jX c #B1AEAF",
"kX c #9CA49A",
"lX c #C7B08F",
"zX c #CAB3AC",
"xX c #D0C4B5",
"cX c #E1D1A0",
"vX c #99A9C6",
"bX c #90B0D1",
"nX c #B4B6C8",
"mX c #AEB2CC",
"MX c #8FB4E7",
"NX c #AABAEB",
"BX c #8A9EC3",
"VX c #C3BAC5",
"CX c #CABDE6",
"ZX c #AFC6D4",
"AX c #B3CEF1",
"SX c #9ECAE3",
"DX c #CFC9CA",
"FX c #CCD4EE",
"GX c #D9FAFF",
"HX c #CAE8F5",
"JX c #ECFEFF",
"KX c #E6FCFB",
"LX c #F4FEFE",
"PX c #FBFAFB",
"IX c #F4F3F4",
"UX c #F4EAD3",
/* pixels */
"w.=.U.Y./.(.n.a 6 t.CXsX3XqXyXyX^.wX5X3X-.s 4 u i 4 7 g :.j s D.+X+XR.(.~.yX2X9 9 =.kXDXcX}.E.d d N.yXDXPXVXlX_.m..XlXlXT.>.U.Y.",
"9.e.U.n.T./.U.d 6 w.dXnXF.uXxXjX/.qXsX2X&.u u > y > 0 O.j ,.k f +X'.(.).D.aX2X8 u &.dXxX XOXR.&.k S.zXUXxXlXlXT.f. X X XT.h n.Y.",
"C 0.qXN.Q.T.U.d 4 =.0XjXeXDXIXDX`.qX3X2X&.u y + : 3 0 *.d n.f g m.R.(.(.D.dX;X8 u &.jXxXlX.X(.&.2.^.UXcXiXlX XT.f..X.X.XE.h n.Y.",
"o.@.dX~././.U.d > <.!.!.rXzXVXVX XuX3X3X&.p y e : > 9 e.:.,.h z.s b.(.(.D.dXy.3 6 >.DXjX X|.(.&.u.jXUXlX X).(.Z.m..X.X'.Y.h n.U.",
"i V 3XdXH._.Q.1.i O.P.!.!.P.wXxX`.iXyXdXO.u e +.i 2 8 +.&.d h s 5 f lX'._.yX-X2 6 =.DXuX_.E./.:.pXHXjX`..X`.(.V.m.(.`.W.Y.j B.G.",
"p +.;XVXqX~.N.e.t.%.;.!.i.w.kXxX.XiXjXtX$.a i e 2 2 O.8 p k f 7 9 d R.R.H.rX>XC 8 =.xXuX(.R.T.:.mXDX^.iX.XW.E.B.H.T.U.W.+Xd M.G.",
"y +.t.hXyXS.S.F.;X-X9.;.;.P.wXiXiXiXjX;Xw.i i : : 8 O.p u d d d O.u h +XT.uXpX~ 2 =.zX~._.R.U.N.hXP.`.W..X}./.v.Q._.,./.Y.h M.G.",
"> o.-XeXhX!.Q.uXy.4.4X;._ ;.tXjXkXwXaXt.y.%.+.i > 0 0 6 u d d d =.u 5 m.T.~.aXo.e 9.zXG.Z.Z.U.wXwX:././.W..X).1.!.jXI.^./.,.v.V.",
"2 @.-Xt.u.wX`.~.e.m 6.%XH ;.aXhXjXZXP.4X4X4Xw.+ 6 0 o 4 5 h N.d p +.4 m.E._.jX_ a :.jXN.N.B.S.aX,.,./.E.`. X~.y.t.hXfX0X^.U.2.N.",
"@.5.aX-Xq.P.^.^.w.6.%X@X5.tXFXnXgXgX4X6XgXZX<.i 6 0 5 5 s >.N.:.3 i 8 U.(.Q.kX;.r <.yXG.M.V.y.>X*.Q.Q.).lXxXDXnX5XNXNXmXhXkX!.F.",
"2 c 5.vX>X4X!.~.;XmX7X@X=X4XHXIXbXZXgX>XAXfXP.2.d 0 5 5 s v.N.>.> > : g ).U.^.P.V $.yXG.*.~.pX3X1.G.H.zXzXDXnXfXsXbXNXNXCXFXVXdX",
"1 b L 5.mX4XrX0XaXAXNX1X=X4XPXPXHXFXZXHXHX=Xt.<.N.&.0 5 s V.N.Y.7 6 2 7 _.Q.P.rXo.-.uXqX*.uXjX;X-.-.zXxXlXiXr.w.4XpX,XvXCXIXIXFX",
"2 v ~ | BXvX3X>XNX,X5X8X=XgXKXJXJXKXJXLXMX@XJ : =.e.9 5 a.D.m./.v.4 6 4 v._.1.P.y 1.D.zXj Q.zXu.0.G.zXuX/.^.j 2.r.wXi.y.sXFXIXIX",
": x  .%X1XBX:XsXsX5X7XSXMXHXLXPXPXPXPXJXBX .U ; 3 %.O.+ z.V.n.T.(.u a d g H.:.<.Y.m.T.iX,.:.xXqXH.H.T.).W.Y.j n.,.~.S.<.y.0XjXFX",
"9.*XBXAXAXAXFXCXNXKXGXSXMXAXJXLXPXPXIXJX7X` D v ; b %.6 f V.m.m.b.f ,.Q.f.f.f Y.cX}.OX/.Y.j iX_.N.Y.m. XE.h k v.>.B.B.>.:.2.!.iX",
"q.$X1XMXMXNXFXFXFXFXSX7X7XMXFXPXPXUXIXJXNX@Xz = , , : > s Z.Z.Y.f.V.:.Y.E.a.f.W.OXoXOX X/.Y.`.Q.m.T./.W..Xf.s z.z.g M.h j I.2.!.",
"T ! 6.8.>X>XfXsX4X>XgXHXHXZXHXGXPXPXPXJX5XN B B z ; ; + k f.h B.f.m.g.Z.A.Z.(.'.oXoXoXoX}.^.5XMX4XiXT.E.'.E.d +.1.&.h h U.M.V.A.",
"| 7.5.eX0X;XtX0X4X4XZXZXZXHXZXGXIXLXLXGX5XB B B * ; + > u h f.m.m.E.E.m.R.b.Z.'.}.oXoXoXOXwXgXAXvX!..XW.|.H.>.p <.*.h n.,.>.v.m.",
" .=Xi.rX0XS.!.0Xu.u.;XmXnXZXBXZXJXKXKXAX5X' # # , $ + 6 k f >.v.m.Y.Z.m.T.v.'.R.W.oXoXoXW.^.gXGXAXqX`. XzXH.r.:.n.>.f n.j j n.n.",
"NXFXnXyX~.n.^.!.uX2X%.3XnXfXbXbXZXAXSXgXvXvX7.z @ 8 9 7 u *.*.v.f.Y.m.Y.Y.v.T.R.+X+XoXOX.X/.gXHXNX3XzX_.dXhXu.2.n.,.g ,.:.j >.,.",
"5XsXrX1.Q.N.^.S.F.u.0.0.aXsXsXfXbXbX7X5XgXZXgX2 X G.D.Z 7 *.*.d m.T.m.m.E.f.s '.W.}.+X}..X).wXZX3XaXzX1.A dXhX2.2.v.d d :.a j ,.",
"N 3.w.2.Q.Q.S.u.tXeX9.b 0.>X4X5XbXSXbXfXfXaXdXw.C zX3Xx.6 &.*.a v.B.Z.m.E.k a.Z.E.E.}.}.E._.wXeX-XyX~.V A A jXkX1.e.1.p d a a j ",
"N 4.r.!.^.!.P.4XsXsX4.V q.y.;X>XbXvXBXfXnXtXu.G.uXzXD.>.6 p d i f b.Z.Z.f.k _.L.A.'.|.'.Z._.qXi.-.1.O.8 A x 8.ZXtXy.e.=.O.p a j ",
"b %.u.2.u.0X:X=X<X5X>XP %.w.y.>XhX5X5.aXhXdXy.G.iXiXN.M.y p a e g V.V.m.a.5 uX).H. Xb.7 D.uX<.%.9 p 3 b m , o.aXnX>Xw.1.O.+.p j ",
"V +.r.F.qXaXmXNXbX=Xb 2 +.%.$.y.dXVXeX3XhXdX2XG.S._.S.,.u u a a d M.M.v.f.y n.uXuXZ + + 6 O.8 P i > : : X X +.wXmXmXt.1.:.p O.*.",
"e ;.!.~.yXhXNXAX,X9.e : y +.i $.yXPXDXaXmXmXyX0.O.>.v.h 4 7 f p 6 &.M.n.y j Q.zXG.$ $ > o.8 O.V o.: ;   o :.^.~.aXFXsXe.a a O.O.",
";.P.wXqX2X2X;X8.$.%.y + + +.o.9.wXDXDXvXhXhXnXw.+.Q.U.>.s 5 *.p i p >.1.a :.:.G.-.0 2 P V o.C 9 ~ b   ; w.^./.N.G.CXCXw.a a O.4.",
"#.P.wX!.F.F.F.w.$.e y 4 6 i o.eXVXkXdXhXhXhXhXy.p ^.Q.>.7 7 p -.i 6 &.V.*.S.8 0 C %.m ~ V C Z Z 3.b   o.rXqXQ.U.0.3XFXeX;.a o.3.",
";.P.!.F.F.F.F.w.+.> y > i o.@.4XkXkXhXhXfXaXaXtX$.!.!.1.d 8 O.=.O.8 D.H.p e.-.1.C V P @.C C l.l.C 2 O.w.eXdXQ.Q.w.7.ZXhX;.a ) 5.",
"/ } q.w.w.w.;.a r > V $ b 0.8.$Xq.>XsXhXpXaXrX0Xi =.1.+.2 3 2 w 1 9 3XdX1.O.F.8 0 b ~ o.C x.l.l.l.z.2.$.-XeX;.+.#.] sXAXq.L H L ",
"z l x , , 1 - r : - l , m $X&X$X-X8.-XsXeXdXdXu.; e.F., : = = = - w 2 G.8 3 =.$ $ #.P P C x.l.l.d.|.*.: q.X.= = l D =XMX%Xn = = ",
"l l l * , : - - - = l B M $X:X&X:X&X8.>Xy.aXjXrX2 jXDX% < = - = t   $ 8 3 $ X o . ; I v V Z l.l.k.XXb.: 7.=Xz z z z @XMX1XN & r ",
"x * = * = & & & * @ , $ c t.4.4.P b ~ 8.-XeXrXjXu.DXjX2 x * = = - ; ; 3 0 $ @   # X 0 Z q -.a.p.J.].'.0 #X<Xz , = B ` 8X7XB B x ",
"* l * * - % - % & * * * 9.eX8.c v x c 3.-Xt.!.dXyXyXaX, x * = * - % ; $ o X   O . X o q H.|.L.k.].].J.0 :X#Xz % * z B <X8X@XB < ",
"* * * % % % % % % % @ * 3.-X8.m c v M m 8.t.u.0XyX%.9., * * = - < % @ # X   O O X -.x.x.L.L.K.{.].K.J.Z -X .= , % < z @X9X#X` * ",
"* # % % * * - % # % , , m b A 4.V , b x m 9.y.F.wXo ; * * * & & , * @ @ @ - - - ; Z V.c.p.k.j.].].XXJ._.qXP < % % : x  .9X9X` < ",
"* * & % & & % & * v x x m x A 4.4.c c v x m w.tXyX2 % 1 = = = < l x * x = l = 1 ; ; -.A.s.j.j.j.j.].d.J.F., 1 w : : v ` 9X9X@Xz ",
"& & & & & & < * b v x n 3.A ] 3.4.4.m n n n @.jXVX$.< v l v 1 1 v n v v Y U Y Y J P 2 *.A.s.J.g.k.h.j.J.H.8 H w 1 w Y @X9X9X#Xn ",
"< , , , x v v v v W ] 8.-X8.N m C 4.] n { W b eXDXq.H K S U P P T U W U E n W ] E T P V x.A.J.'.].K.].XXD.#.Q ) I J [ @X9XMX5X| ",
"< < < 1 v v v v m 8.-X8.$X-X3.M A 3.6.] %X] W t.jX$.) ^ / R W ~ Y T T ! R ! ~ W R G K O.x.c.d.d.].{.].|.<.J [ / T R [ @X#XSXbX..",
"v 1 v v < v l n *X$X$X-X$X8.&XA c A ]  .<X .5.5.8.5.) [ [ } Q W F Y K Y Y U b b K K r p C.d.d.k.k.L.|.H.i _ G [ / '  . .$XAXAXX.",
"v 1 v v v x v 6.8.:X8.8.:X-X$XN A A 6.` bX=X| 3.#.~ Y F [ F E P S S U K K K n b J H e i C.c.d.d.c.c.x.-.y i I F [ E ] ] %XSXAXP.",
"< H = x n x N *X&X$X:X:X8.8.4.4.C A %XN 6X:X' W T T [ F F F E U L L S S S K Y n U L _ i z.c.A.c.c.-.O.9 g v.i ^ ` D U ! X.SXHX6X",
"v v v ! ] n 6.-X%X&X&X4.6.8.M M C A 6.N  .6X] ! T E [ [ ` / T T U T K K F K E E E E U P O.-.z.q 5 3 b Z g.A.p Y F F I Q ..7XGX7X",
"U J ! q.7. .8.$X:X,X%X$X&X3.m c 4.A 3.N `  .| | ) ) } [ } [ ) Q ~ Q Q / / / / F E ' E { T % $ o o o 3 x.K.K.x.] [ / I } ..7XGXvX",
"W n | *X*X8.:X&X:XA $X&XA x c 4.4.C 3.N B n | ..} } } [ { } ) ) ) Q R ^ Q T Y E ' F [ Y Y % o o o 5 9 c.K.].z.] [ _ ) }  .6XGXZX",
"U ! 7.*X%X$X=X&X$X$X:XA M m c t.8 C A M # z R } ^ } { { | { ( I ' E ^ R Q W W Y ' K T G _ ;.p x.a.a.x.K.K.{.G.! / ) ) { [ 6XHXFX",
"n | =X*X%X$X%X%X$X&XN M c c 8.A 2 V A B # * = / ) ) } ) ] { ) Q [ [ E ! ~ @.P T K T L I r P.g A.s.C.g.K.K.|.r.K Q _ ~ ' ] =XHXHX",
"] %X$X&X&X$XN N B M M c c 4.8.c c %.@.$ # # @ b ] ( ( / / Y E Y N n K L t r w H v P W , F.H.q s.d.d.g.].K.J.e.E F F I { ] =XFXKX",
"7.$X:X&X&X$X&X=X%X6.M C A &XA c b @.b $ # X # x #.! R / ^ Y ^ Y ] R T K K L H J P v V y.qXz.s b.g.d.g.].K.c.O.E ` D T ^ ] =XDXKX",
"*X*X$X$X$X-X-X$X$X8.$X-X8.A x c c %.c X # # X , ) ( ^ ^ / ^ R R ! T Y Y Y T E E T b -.H.H.x.*.1.d.g.g.j.d.s.i ^ [ ! ) ^ } =XHXGX",
"7.] m m 6.8.$X$X-X,XpX&Xm x b x b b , X X # # c ) } { ( { ^ ^ ( I Q I T T R ' ' T e *.A.c.A.O.i.a.f.g.d.d.Z.+.T { ! ) ) | q.ZXKX",
"n v l x n M m 3.M 4.3., , b v b v @ X @     & ) | } } } ^ } { ! Q I I I R ] ' ` / e f c.s.H.p i.d.f.s.s.L.A.&.P | ~ ) ^ } 7.ZXJX",
"v v n v n x x c m M x b m b x b ;     #   , _ ..} ) ^ } { ^ { { ) I I I Q ] ' ' / w p a.s.C.z.=.a.g.c.s.L.A.M.o.~ ~ ~ Q ) X.ZXJX",
"m v l l l v m V c , v v & H ~ v @ @     # ) q.) } ) } } ^ ^ ( ! Q T I I _ U E E D I e d z.x.c.Z k a.c.c.'.J.J.-.P ^ { ~ / X.bXJX",
"v W U L v v c c C V v < J ~ P % % #     H #.....} } ^ ^ ^ ( R ! E Y L L H H n U S S w e 1.x.c.c.k a.c.s.'.J.XXV.e Y ' ! ) ..gXPX",
"b J J T v % @ $ @ $ % H Q Q < % % % & w ) q.......} ( ^ ^ ! R Q Y U U T H H P H H Y / K o.*.c.k.*.q c.b.'.K.{.J.i / ' N E / gXLX",
"P H Q _ < # # # #   @ ~ ) P % % ; P ) 5.........^ ^ / / R T U E S K E W P J H _ H W Y G _ +.x.c.D.g f g.J.K.K.[.p K F ' E ) gXLX",
"P 1 P P %   X X X X x P < - % % v ~ ) ) ) ) / ^ } ^ ( ! ! R U Y G G J ~ W J H e e H v D Y o.*.x.qX6 u a.g.K.{.XXb.b [ D R #.fXJX",
"1 < H 1 %     X X x < #.1 % & H 5.) ) ( ........} } ( ( ( R T E t G J n n Y L w 2 b J Y S H i d $.o u k s.j.[.].Z.p ) [ { 5.jXJX",
"w 2 1 , % X   % 1 2 #.eX& < 1 ) T ! ( { ....} ..} ( ) ! ) R T Y t w J n ' D S 1 2 2 H Y K K P P $ @ > 7 x.c.L.[.[.f e / ( 5.jXJX",
"1 P : % % .   = P w q.i.% = Q P U R / ^ } ^ ^ ( ( ! ! ! ! T Y Y L H n U E E K w w e H S D K J P n = X + g b.g.'.XXC.> S L @.nXJX",
"1 1 ; ; : ; < w H H , b 9.P P H ^ R D / [ } } | ) | ! | ) ^ / Y P P J T Y Y K L L L K S D / ^ Q  .H O + 8 =.v.d.K.J.*.w L Q nXJX",
"P , @ ; 2 P H H L P , rXtXv ~ H E E ^ [ } } } | | ~ | #.| ) ^ / @.@.T Y I I K L S I F G F ^ ] ! F ..: o , o.z.s.h.J.Z.e I _ mXLX"
};
